{"accessors" : [{"bufferView" : 0, "byteOffset" : 0, "componentType" : 5123, "count" : 40692, "type" : "SCALAR", "max" : [40666], "min" : [0]}, {"bufferView" : 1, "byteOffset" : 0, "componentType" : 5126, "count" : 40667, "type" : "VEC3", "max" : [7.3926496505737305, 7.3926472663879395, 25.20160675048828], "min" : [-7.3926496505737305, -7.392648696899414, -3.725290298461914E-07], "name" : "POSITION"}, {"bufferView" : 1, "byteOffset" : 12, "componentType" : 5126, "count" : 40667, "type" : "VEC3", "max" : [0.9991450309753418, 0.998607873916626, 1.0000044107437134], "min" : [-0.9991417527198792, -0.9986073970794678, -1.0000044107437134], "name" : "NORMAL"}], "asset" : {"generator" : "Aspose.3D 23.11.1", "version" : "2.0"}, "buffers" : [{"uri" : "data:application/octet-stream;base64,", "byteLength" : 1058000}], "bufferViews" : [{"buffer" : 0, "byteOffset" : 0, "byteLength" : 81384, "target" : 34963}, {"buffer" : 0, "byteOffset" : 81388, "byteLength" : 976608, "byteStride" : 24, "target" : 34962}], "meshes" : [{"primitives" : [{"attributes" : {"POSITION" : 1, "NORMAL" : 2}, "indices" : 0, "mode" : 4}], "name" : ""}], "nodes" : [{"mesh" : 0, "name" : ""}], "scene" : 0, "scenes" : [{"nodes" : [0]}]}